<mxfile host="app.diagrams.net" modified="2022-05-13T13:41:18.227Z" agent="5.0 (Windows NT 10.0; Win64; x64) AppleWebKit/537.36 (KHTML, like Gecko) Chrome/101.0.4951.54 Safari/537.36" etag="YAfcec0r5aIHQtd4mFPm" version="18.0.3" type="github">
  <diagram id="Pp4UJ4THsJMwEIlvclbV" name="Page-1">
    <mxGraphModel dx="1550" dy="867" grid="1" gridSize="10" guides="1" tooltips="1" connect="1" arrows="1" fold="1" page="1" pageScale="1" pageWidth="1169" pageHeight="827" math="0" shadow="0">
      <root>
        <mxCell id="0" />
        <mxCell id="1" parent="0" />
        <mxCell id="Xwr9oSPE_BPrt6rsoKPA-1" value="" style="whiteSpace=wrap;html=1;aspect=fixed;" vertex="1" parent="1">
          <mxGeometry x="190" y="50" width="730" height="730" as="geometry" />
        </mxCell>
        <mxCell id="Xwr9oSPE_BPrt6rsoKPA-2" value="Spustiť Simuláciu" style="rounded=0;whiteSpace=wrap;html=1;fontSize=36;" vertex="1" parent="1">
          <mxGeometry x="360" y="340" width="390" height="60" as="geometry" />
        </mxCell>
        <mxCell id="Xwr9oSPE_BPrt6rsoKPA-21" value="Opustiť hru" style="rounded=0;whiteSpace=wrap;html=1;fontSize=36;" vertex="1" parent="1">
          <mxGeometry x="455" y="700" width="200" height="60" as="geometry" />
        </mxCell>
        <mxCell id="Xwr9oSPE_BPrt6rsoKPA-22" value="Výber Scény" style="rounded=0;whiteSpace=wrap;html=1;fontSize=36;" vertex="1" parent="1">
          <mxGeometry x="360" y="420" width="390" height="60" as="geometry" />
        </mxCell>
        <mxCell id="Xwr9oSPE_BPrt6rsoKPA-24" value="&lt;font color=&quot;#ff0000&quot;&gt;Faktor Strachu&lt;br&gt;Herná Simulácia&lt;/font&gt;" style="text;strokeColor=none;fillColor=none;html=1;fontSize=70;fontStyle=1;verticalAlign=middle;align=center;fontColor=#33FF33;" vertex="1" parent="1">
          <mxGeometry x="390" y="80" width="330" height="160" as="geometry" />
        </mxCell>
      </root>
    </mxGraphModel>
  </diagram>
</mxfile>
